<svg width="158" height="68" viewBox="0 0 158 68" fill="none" xmlns="http://www.w3.org/2000/svg">
<path d="M70.4565 63.2414C70.3872 63.2414 70.3233 63.1996 70.296 63.1323L47.2269 3.19663C47.1923 3.10933 47.2379 3.00929 47.3254 2.97474C47.413 2.942 47.5133 2.98565 47.5461 3.07295L70.617 63.0086C70.6516 63.0959 70.606 63.196 70.5185 63.2287C70.4984 63.2378 70.4765 63.2414 70.4565 63.2414Z" fill="black"/>
<path d="M89.6226 56.6153L85.4279 45.7315L85.4042 45.6733H84.6765L80.4344 56.6572L75.4245 43.7217H74.3612L79.9766 58.2941L79.9985 58.3523H80.7755L85.0413 47.2884L89.298 58.3523H90.0494L95.6867 43.7217H94.6071L89.6226 56.6153Z" fill="black"/>
<path d="M99.3288 58.3523H107.215V57.4247H100.332V51.1279H106.008V50.2003H100.332V44.6493H107.215V43.7217H99.3288V58.3523Z" fill="black"/>
<path d="M133.813 43.7217H132.6L125.389 51.4353V43.7217H124.388V58.3523H125.389V52.7576L126.965 51.0515L133.393 58.3214L133.421 58.3523H134.699L127.643 50.3404L133.813 43.7217Z" fill="black"/>
<path d="M111.979 58.3523H119.865V57.4247H112.982V51.1279H118.657V50.2003H112.982V44.6493H119.865V43.7217H111.979V58.3523Z" fill="black"/>
<path d="M79.8562 40.2514H80.9086L75.2713 25.6172H74.4469L68.8132 40.2514H69.8637L71.5234 35.9372H78.1875L79.8562 40.2514ZM77.8337 35.0114H71.879L74.8573 27.2723L77.8337 35.0114Z" fill="black"/>
<path d="M97.1038 26.5541H102.272V40.2589H103.274V26.5541H108.442V25.6265H97.1038V26.5541Z" fill="black"/>
<path d="M118.336 19.7881C119.505 18.5331 120.124 16.7506 120.124 14.6353C120.124 10.0392 117.282 7.29639 112.522 7.29639H108.448V21.927H112.522C115.059 21.927 117.014 21.2067 118.336 19.7881ZM119.121 14.6353C119.121 17.0034 118.267 20.9758 112.546 20.9758H109.449V8.24763H112.546C118.267 8.24763 119.121 12.249 119.121 14.6353Z" fill="black"/>
<path d="M93.5383 9.30982L102.435 21.927H103.175V7.29639H102.198V19.9136L93.3031 7.29639H92.5608V21.927H93.5383V9.30982Z" fill="black"/>
<path d="M130.827 6.95801C126.563 6.95801 123.468 10.1773 123.468 14.6116C123.468 19.0459 126.563 22.2634 130.827 22.2634C135.091 22.2634 138.188 19.0459 138.188 14.6116C138.188 10.1773 135.093 6.95801 130.827 6.95801ZM137.187 14.6116C137.187 18.5566 134.572 21.314 130.829 21.314C127.087 21.314 124.472 18.5585 124.472 14.6116C124.472 10.6666 127.085 7.90925 130.829 7.90925C134.572 7.90925 137.187 10.6666 137.187 14.6116Z" fill="black"/>
<path d="M151.879 7.29639V19.9136L142.985 7.29639H142.242V21.927H143.22V9.30982L152.116 21.927H152.857V7.29639H151.879Z" fill="black"/>
<path d="M71.7568 20.9994H64.8739V7.29639H63.8708V21.927H71.7568V20.9994Z" fill="black"/>
<path d="M80.8666 22.2634C85.1307 22.2634 88.2274 19.0459 88.2274 14.6116C88.2274 10.1773 85.1325 6.95801 80.8666 6.95801C76.6026 6.95801 73.5077 10.1773 73.5077 14.6116C73.5077 19.0459 76.6026 22.2634 80.8666 22.2634ZM74.5089 14.6116C74.5089 10.6666 77.1224 7.90925 80.8666 7.90925C84.6091 7.90925 87.2244 10.6648 87.2244 14.6116C87.2244 18.5566 84.6109 21.314 80.8666 21.314C77.1242 21.314 74.5089 18.5566 74.5089 14.6116Z" fill="black"/>
<path d="M85.2382 40.2569H86.2413V34.0638H89.3655L93.666 40.2569H94.8533L90.4415 33.9947C92.9693 33.6218 93.8757 31.6229 93.8757 29.8532C93.8757 27.8998 92.745 25.6172 89.557 25.6172H85.2382V40.2569ZM89.557 26.5448C92.6337 26.5448 92.8726 29.0766 92.8726 29.8532C92.8726 30.8408 92.5498 33.1362 89.557 33.1362H86.2395V26.5448H89.557Z" fill="black"/>
<path d="M9.61864 31.5248C9.61864 31.5248 9.62047 31.5248 9.61864 31.5248C9.62047 31.5248 9.62047 31.5248 9.61864 31.5248H24.4387C25.0223 31.5248 25.4929 31.0538 25.4929 30.4717C25.4929 29.8915 25.0205 29.4205 24.4387 29.4205H10.6746V8.0238C10.6746 7.4436 10.2023 6.9707 9.62047 6.9707C9.03868 6.9707 8.56632 7.44178 8.56632 8.0238V30.4717C8.5645 31.0538 9.03686 31.5248 9.61864 31.5248Z" fill="black"/>
<path d="M19.4033 57.8795C19.4051 57.8758 19.4069 57.874 19.4069 57.8722L37.4642 10.9593L41.8759 22.4197H35.2775C34.6957 22.4197 34.2233 22.8907 34.2233 23.4728C34.2233 24.0548 34.6957 24.5259 35.2775 24.5259H42.6875L45.1223 30.8517C45.2828 31.2701 45.684 31.5265 46.1071 31.5265C46.233 31.5265 46.3606 31.5047 46.4847 31.4556C47.0281 31.2482 47.2999 30.6389 47.092 30.0969L38.4491 7.64535C38.4454 7.63626 38.4418 7.62898 38.4381 7.61989C38.4308 7.60352 38.4235 7.58715 38.4162 7.57078C38.4089 7.55441 38.3998 7.53986 38.3925 7.52349C38.3852 7.50894 38.3779 7.49621 38.3688 7.48166C38.3597 7.46529 38.3487 7.44892 38.3378 7.43437C38.3287 7.42164 38.3214 7.41072 38.3123 7.39799C38.3013 7.38162 38.2886 7.36707 38.2776 7.35252C38.2685 7.34161 38.2576 7.3307 38.2484 7.31796C38.2357 7.30341 38.2229 7.29068 38.2101 7.27613C38.1992 7.26522 38.1883 7.25431 38.1755 7.24339C38.1627 7.23066 38.1481 7.21975 38.1354 7.20702C38.1226 7.1961 38.1098 7.18701 38.0971 7.1761C38.0825 7.16518 38.0679 7.15427 38.0533 7.14518C38.0405 7.13608 38.0259 7.12699 38.0132 7.11971C37.9968 7.11062 37.9803 7.09971 37.9639 7.09061C37.9512 7.08334 37.9384 7.07788 37.9238 7.0706C37.9056 7.06151 37.8855 7.05242 37.8654 7.04514C37.8581 7.0415 37.8527 7.03968 37.8454 7.03605C37.8399 7.03423 37.8344 7.03241 37.8271 7.03059C37.8071 7.02331 37.787 7.01604 37.767 7.01058C37.7542 7.00695 37.7396 7.00331 37.7268 6.99967C37.7086 6.99421 37.6885 6.99058 37.6703 6.98694C37.6557 6.9833 37.6393 6.98148 37.6247 6.97784C37.6065 6.97603 37.5882 6.97421 37.57 6.97239C37.5536 6.97057 37.5372 6.96875 37.5207 6.96875C37.5043 6.96875 37.4861 6.96875 37.4697 6.96875C37.4533 6.96875 37.435 6.96875 37.4186 6.96875C37.4022 6.96875 37.3858 6.97057 37.3694 6.97239C37.3511 6.97421 37.3329 6.97603 37.3147 6.97784C37.3001 6.97966 37.2837 6.9833 37.2691 6.98694C37.249 6.99058 37.2308 6.99421 37.2107 6.99967C37.1979 7.00331 37.1833 7.00695 37.1706 7.01058C37.1505 7.01604 37.1286 7.02331 37.1086 7.03059C37.1031 7.03241 37.0976 7.03423 37.0903 7.03605C37.083 7.03787 37.0776 7.0415 37.0703 7.04514C37.0502 7.05242 37.032 7.06151 37.0119 7.0706C36.9991 7.07788 36.9864 7.08334 36.9736 7.09061C36.9572 7.09971 36.939 7.1088 36.9225 7.11971C36.9098 7.12699 36.8952 7.13608 36.8824 7.14518C36.8678 7.15427 36.8532 7.16518 36.8386 7.1761C36.8259 7.18519 36.8131 7.1961 36.8004 7.2052C36.7858 7.21611 36.773 7.22884 36.7584 7.24157C36.7475 7.25249 36.7365 7.26158 36.7256 7.27249C36.711 7.28523 36.6982 7.29978 36.6854 7.31433C36.6763 7.32524 36.6654 7.33615 36.6563 7.34707C36.6435 7.36162 36.6326 7.37799 36.6198 7.39435C36.6107 7.40527 36.6034 7.418 36.5943 7.43073C36.5833 7.4471 36.5742 7.46347 36.5633 7.47984C36.556 7.49257 36.5468 7.50712 36.5395 7.52167C36.5304 7.53804 36.5231 7.55259 36.5158 7.56896C36.5085 7.58533 36.5013 7.6017 36.494 7.61807C36.4903 7.62716 36.4867 7.63444 36.483 7.64353L18.4257 54.5565L10.6035 34.2493C10.3956 33.7073 9.78462 33.4345 9.24113 33.6436C8.69764 33.8528 8.4259 34.4603 8.63381 35.0023L17.4372 57.8722C17.4409 57.8795 17.4445 57.8849 17.4463 57.8922C17.4628 57.9322 17.481 57.974 17.5029 58.0122C17.5102 58.025 17.5175 58.0359 17.5248 58.0468C17.5412 58.0741 17.5594 58.1014 17.5795 58.1268C17.5904 58.1414 17.6014 58.1559 17.6123 58.1686C17.6378 58.1996 17.6652 58.2287 17.6944 58.256C17.7071 58.2687 17.7217 58.2796 17.7363 58.2923C17.7564 58.3105 17.7783 58.3269 17.802 58.3433C17.8166 58.3542 17.833 58.3651 17.8476 58.376C17.8804 58.3978 17.9132 58.416 17.9497 58.4342C17.9698 58.4433 17.9898 58.4524 18.0099 58.4615C18.0208 58.4669 18.0318 58.4724 18.0445 58.476C18.05 58.4778 18.0555 58.4778 18.061 58.4815C18.112 58.4997 18.1649 58.5142 18.2196 58.5251C18.2269 58.527 18.2324 58.5288 18.2397 58.5306C18.2999 58.5415 18.3619 58.5488 18.4239 58.5488C18.4512 58.5488 18.4804 58.5433 18.5078 58.5415C18.5351 58.5397 18.5625 58.5379 18.588 58.5342C18.6172 58.5288 18.6464 58.5215 18.6756 58.5142C18.7048 58.507 18.7339 58.4997 18.7613 58.4906C18.7741 58.4869 18.7886 58.4851 18.8014 58.4797C18.982 58.4106 19.1297 58.2978 19.2428 58.1577C19.2446 58.1541 19.2464 58.1523 19.2501 58.1486C19.3121 58.0668 19.365 57.9759 19.4033 57.8795Z" fill="black"/>
<path d="M46.4828 33.6434C45.9393 33.4342 45.3284 33.7052 45.1205 34.2491L37.3019 54.5599L30.7253 37.4738C30.5156 36.9318 29.9064 36.659 29.363 36.8682C28.8195 37.0773 28.5477 37.6848 28.7556 38.2268L36.3171 57.8719C36.3189 57.8792 36.3243 57.8847 36.3262 57.892C36.3426 57.9338 36.3626 57.9756 36.3845 58.0138C36.39 58.0229 36.3955 58.032 36.4009 58.0411C36.4192 58.072 36.4411 58.1029 36.463 58.132C36.4721 58.143 36.4794 58.1557 36.4885 58.1666C36.5158 58.1993 36.545 58.2321 36.5779 58.2612C36.587 58.2703 36.5961 58.2775 36.6052 58.2848C36.6326 58.3085 36.6599 58.3303 36.6909 58.3521C36.7 58.3594 36.711 58.3667 36.7201 58.3739C36.7566 58.3976 36.7949 58.4194 36.835 58.4394C36.846 58.4449 36.8587 58.4503 36.8697 58.4558C36.8879 58.4631 36.9043 58.4722 36.9225 58.4794C36.9317 58.4831 36.939 58.4831 36.9481 58.4867C36.99 58.5013 37.0338 58.514 37.0776 58.5231C37.094 58.5267 37.1086 58.5304 37.1232 58.534C37.1815 58.5431 37.2399 58.5504 37.3001 58.5504C37.3037 58.5504 37.3092 58.5486 37.3128 58.5486C37.3676 58.5486 37.4204 58.5431 37.4752 58.534C37.4934 58.5304 37.5135 58.5249 37.5317 58.5213C37.5718 58.5122 37.6119 58.5013 37.6521 58.4885C37.6612 58.4849 37.6703 58.4849 37.6812 58.4813C37.7013 58.474 37.7214 58.4649 37.7396 58.4558C37.7487 58.4522 37.756 58.4485 37.7651 58.4449C37.8071 58.4249 37.8472 58.4012 37.8855 58.3758C37.8928 58.3703 37.9001 58.3648 37.9074 58.3594C37.9402 58.3357 37.9712 58.3121 38.0022 58.2848C38.0095 58.2794 38.0168 58.2721 38.0241 58.2666C38.0569 58.2357 38.0879 58.203 38.1171 58.1684C38.1244 58.1593 38.1317 58.1484 38.139 58.1393C38.1627 58.1084 38.1864 58.0757 38.2065 58.0411C38.2101 58.0338 38.2156 58.0265 38.2193 58.0193C38.243 57.9793 38.2612 57.9374 38.2794 57.8938C38.2813 57.8883 38.2849 57.8829 38.2886 57.8756L47.092 35.0057C47.2981 34.46 47.0263 33.8507 46.4828 33.6434Z" fill="black"/>
</svg>
