<svg width="138" height="28" viewBox="0 0 138 28" fill="none" xmlns="http://www.w3.org/2000/svg">
<path d="M22.2 7.36V26.24C22.2 26.6 21.96 26.84 21.6 26.84H17.12C16.76 26.84 16.56 26.6 16.52 26.24L16.4 24.76C15 26.32 13.12 27.4 10.64 27.4C5.08 27.4 0.959999 22.72 0.959999 16.88C0.959999 11.04 5.08 6.36 10.64 6.36C13 6.36 14.96 7.48 16.4 9.12L16.52 7.44C16.56 7.08 16.76 6.84 17.12 6.84H21.6C21.96 6.76 22.2 7 22.2 7.36ZM15.92 16.8C15.92 14.12 14 11.88 11.4 11.88C8.76 11.88 6.84 14 6.84 16.8C6.84 19.64 8.76 21.76 11.4 21.76C14 21.76 15.92 19.48 15.92 16.8Z" fill="#322F2E"/>
<path d="M40.08 8.24L38.72 11.76C38.56 12.24 38.2 12.32 37.72 12.2C37.32 12.08 36.8 11.88 36.04 11.88C33.48 11.88 31.96 13.76 31.96 16.24V26.24C31.96 26.6 31.72 26.84 31.36 26.84H26.44C26.08 26.84 25.84 26.6 25.84 26.24V7.36C25.84 7 26.08 6.76 26.44 6.76H31.16C31.52 6.76 31.72 7 31.76 7.36L31.92 9.68C32.96 7.72 34.64 6.28 37.08 6.28C38.28 6.28 39.28 6.76 39.88 7.32C40.2 7.64 40.2 7.96 40.08 8.24Z" fill="#322F2E"/>
<path d="M54.8 20.12C55.12 19.84 55.4 19.84 55.72 20.12L58.68 22.96C58.92 23.2 58.96 23.52 58.72 23.84C56.84 26 54.04 27.4 50.84 27.4C45.04 27.4 40.56 22.76 40.56 16.88C40.56 11 45.08 6.36 50.84 6.36C53.96 6.36 56.72 7.76 58.6 9.92C58.84 10.2 58.8 10.52 58.56 10.8L55.56 13.6C55.28 13.88 55 13.84 54.68 13.56C53.52 12.56 52.36 12 51 12C48.32 12 46.44 14.08 46.44 16.84C46.44 19.6 48.32 21.68 51 21.68C52.44 21.68 53.64 21.12 54.8 20.12Z" fill="#322F2E"/>
<path d="M81.64 7.36V26.24C81.64 26.6 81.4 26.84 81.04 26.84H76.56C76.2 26.84 76 26.6 75.96 26.24L75.84 24.76C74.44 26.32 72.56 27.4 70.08 27.4C64.52 27.4 60.4 22.72 60.4 16.88C60.4 11.04 64.52 6.36 70.08 6.36C72.44 6.36 74.4 7.48 75.84 9.12L75.96 7.44C76 7.08 76.2 6.84 76.56 6.84H81.04C81.4 6.76 81.64 7 81.64 7.36ZM75.36 16.8C75.36 14.12 73.44 11.88 70.84 11.88C68.2 11.88 66.28 14 66.28 16.8C66.28 19.64 68.2 21.76 70.84 21.76C73.44 21.76 75.36 19.48 75.36 16.8Z" fill="#322F2E"/>
<path d="M99.52 8.24L98.16 11.76C98 12.24 97.64 12.32 97.12 12.2C96.72 12.08 96.2 11.88 95.44 11.88C92.88 11.88 91.36 13.76 91.36 16.24V26.24C91.36 26.6 91.12 26.84 90.76 26.84H85.84C85.48 26.84 85.24 26.6 85.24 26.24V7.36C85.24 7 85.48 6.76 85.84 6.76H90.56C90.92 6.76 91.12 7 91.16 7.36L91.32 9.68C92.36 7.72 94.04 6.28 96.48 6.28C97.68 6.28 98.68 6.76 99.28 7.32C99.64 7.64 99.64 7.96 99.52 8.24Z" fill="#322F2E"/>
<path d="M114.08 7.36V11.08C114.08 11.44 113.84 11.68 113.48 11.68H110.6V26.2C110.6 26.56 110.36 26.8 110 26.8H105.08C104.72 26.8 104.48 26.56 104.48 26.2V11.72H101.6C101.24 11.72 101 11.48 101 11.12V7.36C101 7 101.24 6.76 101.6 6.76H104.48V1.24C104.48 0.879999 104.72 0.639999 105.08 0.639999H110C110.36 0.639999 110.6 0.879999 110.6 1.24V6.76H113.48C113.84 6.76 114.08 7 114.08 7.36Z" fill="#322F2E"/>
<path d="M137.04 7.36V26.24C137.04 26.6 136.8 26.84 136.44 26.84H131.96C131.6 26.84 131.4 26.6 131.36 26.24L131.24 24.76C129.84 26.32 127.96 27.4 125.48 27.4C119.92 27.4 115.8 22.72 115.8 16.88C115.8 11.04 119.92 6.36 125.48 6.36C127.84 6.36 129.8 7.48 131.24 9.12L131.36 7.44C131.4 7.08 131.6 6.84 131.96 6.84H136.44C136.8 6.76 137.04 7 137.04 7.36ZM130.76 16.8C130.76 14.12 128.84 11.88 126.24 11.88C123.6 11.88 121.68 14 121.68 16.8C121.68 19.64 123.6 21.76 126.24 21.76C128.84 21.76 130.76 19.48 130.76 16.8Z" fill="#322F2E"/>
</svg>
