<svg width="20" height="20" viewBox="0 0 20 20" fill="none" xmlns="http://www.w3.org/2000/svg">
<path d="M2.91666 9.99992C2.91666 10.4583 3.29166 10.8333 3.74999 10.8333H14.1917L10.675 14.3499C10.3333 14.6916 10.3333 15.2416 10.675 15.5833C11.0167 15.9249 11.5667 15.9249 11.9083 15.5833L16.8333 10.6666C17.0167 10.4833 17.1 10.2416 17.0833 10.0083C17.0917 9.77492 17.0083 9.53325 16.8333 9.34992L11.9083 4.43325C11.5667 4.09159 11.0167 4.09159 10.675 4.43325C10.3333 4.77492 10.3333 5.32492 10.675 5.66659L14.1917 9.16658H3.74999C3.29166 9.16658 2.91666 9.54159 2.91666 9.99992Z" fill="white"/>
</svg>
